<svg width="1200.70625px" height="296px" xmlns="http://www.w3.org/2000/svg" viewBox="-350.353125 -73 1200.70625 296" style="background: rgba(29, 14, 11, 0);" preserveAspectRatio="xMidYMid"><defs><linearGradient id="editing-outline-gradient" x1="-0.5" x2="1.5" y1="0.5000000000000002" y2="0.4999999999999998"><stop offset="0" stop-color="#df00ff"></stop><stop offset="1" stop-color="#774023"></stop></linearGradient><filter id="editing-outline" x="-100%" y="-100%" width="300%" height="300%"><feMorphology in="SourceGraphic" operator="dilate" radius="1" result="outline"></feMorphology><feComposite operator="out" in="outline" in2="SourceAlpha"></feComposite></filter></defs><g filter="url(#editing-outline)"><g transform="translate(-186.47501277923584, 136.79500579833984)"><path d="M15.98-30.26L15.98-30.26Q16.49-24.48 20.32-19.21L20.32-19.21L20.32-19.21Q24.14-13.94 30.86-10.63L30.86-10.63L30.86-10.63Q37.57-7.31 46.24-7.31L46.24-7.31L46.24-7.31Q59.33-7.31 68.09-13.18L68.09-13.18L68.09-13.18Q76.84-19.04 76.84-31.79L76.84-31.79L76.84-31.79Q76.84-39.27 72.59-44.29L72.59-44.29L72.59-44.29Q68.34-49.30 62.05-52.28L62.05-52.28L62.05-52.28Q55.76-55.25 44.88-59.16L44.88-59.16L44.88-59.16Q33.15-63.24 26.10-66.73L26.10-66.73L26.10-66.73Q19.04-70.21 14.20-76.16L14.20-76.16L14.20-76.16Q9.35-82.11 9.35-91.46L9.35-91.46L9.35-91.46Q9.35-98.94 13.60-105.66L13.60-105.66L13.60-105.66Q17.85-112.37 26.44-116.54L26.44-116.54L26.44-116.54Q35.02-120.70 47.60-120.70L47.60-120.70L47.60-120.70Q55.93-120.70 61.37-119.51L61.37-119.51L61.37-119.51Q66.81-118.32 72.42-115.60L72.42-115.60L69.53-106.59L69.53-106.59Q59.84-111.52 47.94-111.52L47.94-111.52L47.94-111.52Q34.85-111.52 27.03-106.08L27.03-106.08L27.03-106.08Q19.21-100.64 19.21-90.95L19.21-90.95L19.21-90.95Q19.21-84.83 23.12-80.67L23.12-80.67L23.12-80.67Q27.03-76.50 32.73-73.95L32.73-73.95L32.73-73.95Q38.42-71.40 48.62-67.83L48.62-67.83L48.62-67.83Q61.03-63.58 68.68-59.93L68.68-59.93L68.68-59.93Q76.33-56.27 81.69-49.56L81.69-49.56L81.69-49.56Q87.04-42.84 87.04-32.64L87.04-32.64L87.04-32.64Q87.04-17 77.09-7.57L77.09-7.57L77.09-7.57Q67.15 1.87 46.41 1.87L46.41 1.87L46.41 1.87Q33.83 1.87 24.91-2.81L24.91-2.81L24.91-2.81Q15.98-7.48 11.31-14.88L11.31-14.88L11.31-14.88Q6.63-22.27 6.29-30.26L6.29-30.26L15.98-30.26ZM124.27 0L124.27-110.50L95.37-110.50L95.37-119.00L163.71-119.00L163.71-110.50L133.79-110.50L133.79 0L124.27 0ZM176.97 0L176.97-119.00L233.75-119.00L233.75-110.16L186.49-110.16L186.49-70.21L218.96-70.21L215.73-60.86L186.49-60.86L186.49-8.50L233.41-8.50L233.41 0L176.97 0ZM316.71 0L314.33-6.97L314.33-6.97Q305.49 1.70 289.68 1.70L289.68 1.70L289.68 1.70Q280.16 1.70 272-1.87L272-1.87L272-1.87Q263.84-5.44 258.83-13.09L258.83-13.09L258.83-13.09Q253.81-20.74 253.81-32.13L253.81-32.13L253.81-85.51L253.81-85.51Q253.81-97.41 257.64-104.64L257.64-104.64L257.64-104.64Q261.46-111.86 268.60-116.28L268.60-116.28L268.60-116.28Q276.08-120.53 286.96-120.53L286.96-120.53L286.96-120.53Q300.22-120.53 310.93-114.92L310.93-114.92L308.21-108.46L308.21-108.46Q298.52-112.03 289.85-112.03L289.85-112.03L289.85-112.03Q279.48-112.03 271.41-106.93L271.41-106.93L271.41-106.93Q263.33-101.83 263.33-87.04L263.33-87.04L263.33-31.79L263.33-31.79Q263.33-20.40 270.73-13.94L270.73-13.94L270.73-13.94Q278.12-7.48 289.51-7.48L289.51-7.48L289.51-7.48Q301.07-7.48 307.87-14.11L307.87-14.11L307.87-14.11Q314.67-20.74 314.67-31.62L314.67-31.62L314.67-41.65L303.45-41.65L300.22-51.00L323.68-51.00L323.68 0L316.71 0ZM416.16-31.45L416.16-31.45Q416.16-14.28 405.71-6.21L405.71-6.21L405.71-6.21Q395.25 1.87 380.63 1.87L380.63 1.87L380.63 1.87Q371.45 1.87 363.29-1.45L363.29-1.45L363.29-1.45Q355.13-4.76 349.94-12.24L349.94-12.24L349.94-12.24Q344.76-19.72 344.76-31.45L344.76-31.45L344.76-86.19L344.76-86.19Q344.76-103.70 354.37-112.71L354.37-112.71L354.37-112.71Q363.97-121.72 380.80-121.72L380.80-121.72L380.80-121.72Q397.63-121.72 406.89-112.20L406.89-112.20L406.89-112.20Q416.16-102.68 416.16-86.02L416.16-86.02L416.16-31.45ZM406.81-87.72L406.81-87.72Q406.81-100.13 399.59-106.42L399.59-106.42L399.59-106.42Q392.36-112.71 380.46-112.71L380.46-112.71L380.46-112.71Q368.56-112.71 361.42-106.42L361.42-106.42L361.42-106.42Q354.28-100.13 354.28-87.72L354.28-87.72L354.28-31.62L354.28-31.62Q354.28-19.55 361.68-13.35L361.68-13.35L361.68-13.35Q369.07-7.14 380.46-7.14L380.46-7.14L380.46-7.14Q392.02-7.14 399.42-13.18L399.42-13.18L399.42-13.18Q406.81-19.21 406.81-31.79L406.81-31.79L406.81-87.72ZM514.76 0L450.16-101.49L450.16 0L440.64 0L440.64-119.00L450.16-119.00L514.76-17.51L514.76-119.00L524.28-119.00L524.28 0L514.76 0ZM619.99-31.45L619.99-31.45Q619.99-14.28 609.53-6.21L609.53-6.21L609.53-6.21Q599.08 1.87 584.46 1.87L584.46 1.87L584.46 1.87Q575.28 1.87 567.12-1.45L567.12-1.45L567.12-1.45Q558.96-4.76 553.77-12.24L553.77-12.24L553.77-12.24Q548.59-19.72 548.59-31.45L548.59-31.45L548.59-86.19L548.59-86.19Q548.59-103.70 558.20-112.71L558.20-112.71L558.20-112.71Q567.80-121.72 584.63-121.72L584.63-121.72L584.63-121.72Q601.46-121.72 610.73-112.20L610.73-112.20L610.73-112.20Q619.99-102.68 619.99-86.02L619.99-86.02L619.99-31.45ZM610.64-87.72L610.64-87.72Q610.64-100.13 603.41-106.42L603.41-106.42L603.41-106.42Q596.19-112.71 584.29-112.71L584.29-112.71L584.29-112.71Q572.39-112.71 565.25-106.42L565.25-106.42L565.25-106.42Q558.11-100.13 558.11-87.72L558.11-87.72L558.11-31.62L558.11-31.62Q558.11-19.55 565.50-13.35L565.50-13.35L565.50-13.35Q572.90-7.14 584.29-7.14L584.29-7.14L584.29-7.14Q595.85-7.14 603.25-13.18L603.25-13.18L603.25-13.18Q610.64-19.21 610.64-31.79L610.64-31.79L610.64-87.72ZM726.07 0L726.07-90.95L695.13 0L684.76 0L653.99-90.95L653.99 0L644.47 0L644.47-119.00L653.99-119.00L689.86-14.62L726.07-119.00L735.59-119.00L735.59 0L726.07 0ZM771.80 0L771.80-110.33L760.41-110.67L760.41-119.00L781.32-119.00L781.32 0L771.80 0ZM866.66-3.91L866.66-3.91Q851.53 1.70 838.44 1.70L838.44 1.70L838.44 1.70Q823.65 1.70 814.47-6.12L814.47-6.12L814.47-6.12Q805.29-13.94 805.29-31.11L805.29-31.11L805.29-85.68L805.29-85.68Q805.29-98.60 808.95-105.23L808.95-105.23L808.95-105.23Q812.60-111.86 820.08-116.45L820.08-116.45L820.08-116.45Q827.56-120.70 838.44-120.70L838.44-120.70L838.44-120.70Q851.70-120.70 862.41-115.09L862.41-115.09L859.69-108.63L859.69-108.63Q850-112.20 841.33-112.20L841.33-112.20L841.33-112.20Q830.96-112.20 822.89-107.10L822.89-107.10L822.89-107.10Q814.81-102.00 814.81-87.21L814.81-87.21L814.81-31.45L814.81-31.45Q814.81-19.72 820.93-13.35L820.93-13.35L820.93-13.35Q827.05-6.97 839.29-6.97L839.29-6.97L839.29-6.97Q850-6.97 864.62-11.90L864.62-11.90L866.66-3.91Z" fill="url(#editing-outline-gradient)"></path></g></g><style>text {
  font-size: 64px;
  font-family: Arial Black;
  dominant-baseline: central;
  text-anchor: middle;
}</style></svg>