<svg width="464.9451171875px" height="124.39999999999999px" xmlns="http://www.w3.org/2000/svg" viewBox="17.527441406250006 12.800000000000004 464.9451171875 124.39999999999999" style="background: rgba(29, 14, 11, 0);" preserveAspectRatio="xMidYMid"><defs><linearGradient id="editing-outline-gradient" x1="-0.5" x2="1.5" y1="0.5000000000000002" y2="0.4999999999999998"><stop offset="0" stop-color="#df00ff"></stop><stop offset="1" stop-color="#774023"></stop></linearGradient><filter id="editing-outline" x="-100%" y="-100%" width="300%" height="300%"><feMorphology in="SourceGraphic" operator="dilate" radius="1" result="outline"></feMorphology><feComposite operator="out" in="outline" in2="SourceAlpha"></feComposite></filter></defs><g filter="url(#editing-outline)"><g transform="translate(85.84133434295654, 98.26000595092773)"><path d="M6.02-11.39L6.02-11.39Q6.21-9.22 7.65-7.23L7.65-7.23L7.65-7.23Q9.09-5.25 11.62-4L11.62-4L11.62-4Q14.14-2.75 17.41-2.75L17.41-2.75L17.41-2.75Q22.34-2.75 25.63-4.96L25.63-4.96L25.63-4.96Q28.93-7.17 28.93-11.97L28.93-11.97L28.93-11.97Q28.93-14.78 27.33-16.67L27.33-16.67L27.33-16.67Q25.73-18.56 23.36-19.68L23.36-19.68L23.36-19.68Q20.99-20.80 16.90-22.27L16.90-22.27L16.90-22.27Q12.48-23.81 9.82-25.12L9.82-25.12L9.82-25.12Q7.17-26.43 5.34-28.67L5.34-28.67L5.34-28.67Q3.52-30.91 3.52-34.43L3.52-34.43L3.52-34.43Q3.52-37.25 5.12-39.78L5.12-39.78L5.12-39.78Q6.72-42.30 9.95-43.87L9.95-43.87L9.95-43.87Q13.18-45.44 17.92-45.44L17.92-45.44L17.92-45.44Q21.06-45.44 23.10-44.99L23.10-44.99L23.10-44.99Q25.15-44.54 27.26-43.52L27.26-43.52L26.18-40.13L26.18-40.13Q22.53-41.98 18.05-41.98L18.05-41.98L18.05-41.98Q13.12-41.98 10.18-39.94L10.18-39.94L10.18-39.94Q7.23-37.89 7.23-34.24L7.23-34.24L7.23-34.24Q7.23-31.94 8.70-30.37L8.70-30.37L8.70-30.37Q10.18-28.80 12.32-27.84L12.32-27.84L12.32-27.84Q14.46-26.88 18.30-25.54L18.30-25.54L18.30-25.54Q22.98-23.94 25.86-22.56L25.86-22.56L25.86-22.56Q28.74-21.18 30.75-18.66L30.75-18.66L30.75-18.66Q32.77-16.13 32.77-12.29L32.77-12.29L32.77-12.29Q32.77-6.40 29.02-2.85L29.02-2.85L29.02-2.85Q25.28 0.70 17.47 0.70L17.47 0.70L17.47 0.70Q12.74 0.70 9.38-1.06L9.38-1.06L9.38-1.06Q6.02-2.82 4.26-5.60L4.26-5.60L4.26-5.60Q2.50-8.38 2.37-11.39L2.37-11.39L6.02-11.39ZM46.78 0L46.78-41.60L35.90-41.60L35.90-44.80L61.63-44.80L61.63-41.60L50.37-41.60L50.37 0L46.78 0ZM66.62 0L66.62-44.80L88-44.80L88-41.47L70.21-41.47L70.21-26.43L82.43-26.43L81.22-22.91L70.21-22.91L70.21-3.20L87.87-3.20L87.87 0L66.62 0ZM119.23 0L118.34-2.62L118.34-2.62Q115.01 0.64 109.06 0.64L109.06 0.64L109.06 0.64Q105.47 0.64 102.40-0.70L102.40-0.70L102.40-0.70Q99.33-2.05 97.44-4.93L97.44-4.93L97.44-4.93Q95.55-7.81 95.55-12.10L95.55-12.10L95.55-32.19L95.55-32.19Q95.55-36.67 96.99-39.39L96.99-39.39L96.99-39.39Q98.43-42.11 101.12-43.78L101.12-43.78L101.12-43.78Q103.94-45.38 108.03-45.38L108.03-45.38L108.03-45.38Q113.02-45.38 117.06-43.26L117.06-43.26L116.03-40.83L116.03-40.83Q112.38-42.18 109.12-42.18L109.12-42.18L109.12-42.18Q105.22-42.18 102.18-40.26L102.18-40.26L102.18-40.26Q99.14-38.34 99.14-32.77L99.14-32.77L99.14-11.97L99.14-11.97Q99.14-7.68 101.92-5.25L101.92-5.25L101.92-5.25Q104.70-2.82 108.99-2.82L108.99-2.82L108.99-2.82Q113.34-2.82 115.90-5.31L115.90-5.31L115.90-5.31Q118.46-7.81 118.46-11.90L118.46-11.90L118.46-15.68L114.24-15.68L113.02-19.20L121.86-19.20L121.86 0L119.23 0ZM156.67-11.84L156.67-11.84Q156.67-5.38 152.74-2.34L152.74-2.34L152.74-2.34Q148.80 0.70 143.30 0.70L143.30 0.70L143.30 0.70Q139.84 0.70 136.77-0.54L136.77-0.54L136.77-0.54Q133.70-1.79 131.74-4.61L131.74-4.61L131.74-4.61Q129.79-7.42 129.79-11.84L129.79-11.84L129.79-32.45L129.79-32.45Q129.79-39.04 133.41-42.43L133.41-42.43L133.41-42.43Q137.02-45.82 143.36-45.82L143.36-45.82L143.36-45.82Q149.70-45.82 153.18-42.24L153.18-42.24L153.18-42.24Q156.67-38.66 156.67-32.38L156.67-32.38L156.67-11.84ZM153.15-33.02L153.15-33.02Q153.15-37.70 150.43-40.06L150.43-40.06L150.43-40.06Q147.71-42.43 143.23-42.43L143.23-42.43L143.23-42.43Q138.75-42.43 136.06-40.06L136.06-40.06L136.06-40.06Q133.38-37.70 133.38-33.02L133.38-33.02L133.38-11.90L133.38-11.90Q133.38-7.36 136.16-5.02L136.16-5.02L136.16-5.02Q138.94-2.69 143.23-2.69L143.23-2.69L143.23-2.69Q147.58-2.69 150.37-4.96L150.37-4.96L150.37-4.96Q153.15-7.23 153.15-11.97L153.15-11.97L153.15-33.02ZM193.79 0L169.47-38.21L169.47 0L165.89 0L165.89-44.80L169.47-44.80L193.79-6.59L193.79-44.80L197.38-44.80L197.38 0L193.79 0ZM233.41-11.84L233.41-11.84Q233.41-5.38 229.47-2.34L229.47-2.34L229.47-2.34Q225.54 0.70 220.03 0.70L220.03 0.70L220.03 0.70Q216.58 0.70 213.50-0.54L213.50-0.54L213.50-0.54Q210.43-1.79 208.48-4.61L208.48-4.61L208.48-4.61Q206.53-7.42 206.53-11.84L206.53-11.84L206.53-32.45L206.53-32.45Q206.53-39.04 210.14-42.43L210.14-42.43L210.14-42.43Q213.76-45.82 220.10-45.82L220.10-45.82L220.10-45.82Q226.43-45.82 229.92-42.24L229.92-42.24L229.92-42.24Q233.41-38.66 233.41-32.38L233.41-32.38L233.41-11.84ZM229.89-33.02L229.89-33.02Q229.89-37.70 227.17-40.06L227.17-40.06L227.17-40.06Q224.45-42.43 219.97-42.43L219.97-42.43L219.97-42.43Q215.49-42.43 212.80-40.06L212.80-40.06L212.80-40.06Q210.11-37.70 210.11-33.02L210.11-33.02L210.11-11.90L210.11-11.90Q210.11-7.36 212.90-5.02L212.90-5.02L212.90-5.02Q215.68-2.69 219.97-2.69L219.97-2.69L219.97-2.69Q224.32-2.69 227.10-4.96L227.10-4.96L227.10-4.96Q229.89-7.23 229.89-11.97L229.89-11.97L229.89-33.02ZM273.34 0L273.34-34.24L261.70 0L257.79 0L246.21-34.24L246.21 0L242.62 0L242.62-44.80L246.21-44.80L259.71-5.50L273.34-44.80L276.93-44.80L276.93 0L273.34 0ZM290.56 0L290.56-41.54L286.27-41.66L286.27-44.80L294.14-44.80L294.14 0L290.56 0ZM326.27-1.47L326.27-1.47Q320.58 0.64 315.65 0.64L315.65 0.64L315.65 0.64Q310.08 0.64 306.62-2.30L306.62-2.30L306.62-2.30Q303.17-5.25 303.17-11.71L303.17-11.71L303.17-32.26L303.17-32.26Q303.17-37.12 304.54-39.62L304.54-39.62L304.54-39.62Q305.92-42.11 308.74-43.84L308.74-43.84L308.74-43.84Q311.55-45.44 315.65-45.44L315.65-45.44L315.65-45.44Q320.64-45.44 324.67-43.33L324.67-43.33L323.65-40.90L323.65-40.90Q320-42.24 316.74-42.24L316.74-42.24L316.74-42.24Q312.83-42.24 309.79-40.32L309.79-40.32L309.79-40.32Q306.75-38.40 306.75-32.83L306.75-32.83L306.75-11.84L306.75-11.84Q306.75-7.42 309.06-5.02L309.06-5.02L309.06-5.02Q311.36-2.62 315.97-2.62L315.97-2.62L315.97-2.62Q320-2.62 325.50-4.48L325.50-4.48L326.27-1.47Z" fill="url(#editing-outline-gradient)"></path></g></g><style>text {
  font-size: 64px;
  font-family: Arial Black;
  dominant-baseline: central;
  text-anchor: middle;
}</style></svg>